<svg xmlns="http://www.w3.org/2000/svg" version="1.1" xmlns:xlink="http://www.w3.org/1999/xlink" xmlns:svgjs="http://svgjs.dev/svgjs" width="1500" height="1500" viewBox="0 0 1500 1500"><rect width="1500" height="1500" fill="#ffffff"></rect><g transform="matrix(0.6666666666666666,0,0,0.6666666666666666,249.39393939393938,560.0857586181775)"><svg viewBox="0 0 396 150" data-background-color="#ffffff" preserveAspectRatio="xMidYMid meet" height="568" width="1500" xmlns="http://www.w3.org/2000/svg" xmlns:xlink="http://www.w3.org/1999/xlink"><g id="tight-bounds" transform="matrix(1,0,0,1,0.2400000000000091,0.2301132234332499)"><svg viewBox="0 0 395.52 149.5397735531335" height="149.5397735531335" width="395.52"><g><svg viewBox="0 0 675.4678230343056 255.3835591094714" height="149.5397735531335" width="395.52"><g><rect width="11.905900523923373" height="185.716698194659" x="236.87464365194418" y="34.83343045740621" fill="#0063db" opacity="1" stroke-width="0" stroke="transparent" fill-opacity="1" class="rect-qz-0" data-fill-palette-color="primary" rx="1%" id="qz-0" data-palette-color="#0063db"></rect></g><g transform="matrix(1,0,0,1,279.9478230343057,35.29541229371132)"><svg viewBox="0 0 395.52 184.79273452204876" height="184.79273452204876" width="395.52"><g id="textblocktransform"><svg viewBox="0 0 395.52 184.79273452204876" height="184.79273452204876" width="395.52" id="textblock"><g><svg viewBox="0 0 395.52 132.02222529371113" height="132.02222529371113" width="395.52"><g transform="matrix(1,0,0,1,0,0)"><svg width="395.52" viewBox="5.25 -35.83 108.52 36.23" height="132.02222529371113" data-palette-color="#0063db"><g class="wordmark-text-0" data-fill-palette-color="primary" id="text-0"><path d="M10.1-35.83L10.1 0 5.25 0 5.25-35.83 10.1-35.83ZM23.45 0L19 0 19-25.33 21.65-25.33Q22.6-25.33 22.85-24.4L22.85-24.4 23.2-21.65Q24.85-23.48 26.89-24.6 28.92-25.73 31.6-25.73L31.6-25.73Q33.67-25.73 35.26-25.04 36.85-24.35 37.91-23.09 38.97-21.83 39.52-20.05 40.07-18.28 40.07-16.13L40.07-16.13 40.07 0 35.62 0 35.62-16.13Q35.62-19 34.31-20.59 33-22.18 30.3-22.18L30.3-22.18Q28.32-22.18 26.61-21.23 24.9-20.28 23.45-18.65L23.45-18.65 23.45 0ZM57.05-25.73L57.05-25.73Q59.82-25.73 62.06-24.8 64.3-23.88 65.86-22.18 67.42-20.48 68.26-18.06 69.09-15.65 69.09-12.68L69.09-12.68Q69.09-9.68 68.26-7.28 67.42-4.88 65.86-3.18 64.3-1.48 62.06-0.56 59.82 0.35 57.05 0.35L57.05 0.35Q54.27 0.35 52.03-0.56 49.8-1.48 48.22-3.18 46.65-4.88 45.8-7.28 44.95-9.68 44.95-12.68L44.95-12.68Q44.95-15.65 45.8-18.06 46.65-20.48 48.22-22.18 49.8-23.88 52.03-24.8 54.27-25.73 57.05-25.73ZM57.05-3.13L57.05-3.13Q60.8-3.13 62.65-5.64 64.5-8.15 64.5-12.65L64.5-12.65Q64.5-17.18 62.65-19.7 60.8-22.23 57.05-22.23L57.05-22.23Q55.15-22.23 53.75-21.58 52.35-20.93 51.41-19.7 50.47-18.48 50.01-16.69 49.55-14.9 49.55-12.65L49.55-12.65Q49.55-10.4 50.01-8.63 50.47-6.85 51.41-5.64 52.35-4.42 53.75-3.78 55.15-3.13 57.05-3.13ZM82.27 0.4L82.27 0.4Q79.27 0.4 77.66-1.28 76.04-2.95 76.04-6.1L76.04-6.1 76.04-21.6 72.99-21.6Q72.59-21.6 72.32-21.84 72.04-22.08 72.04-22.58L72.04-22.58 72.04-24.35 76.19-24.88 77.22-32.7Q77.27-33.08 77.54-33.31 77.82-33.55 78.24-33.55L78.24-33.55 80.49-33.55 80.49-24.83 87.74-24.83 87.74-21.6 80.49-21.6 80.49-6.4Q80.49-4.8 81.27-4.03 82.04-3.25 83.27-3.25L83.27-3.25Q83.97-3.25 84.48-3.44 84.99-3.63 85.37-3.85 85.74-4.08 86.01-4.26 86.27-4.45 86.47-4.45L86.47-4.45Q86.82-4.45 87.09-4.03L87.09-4.03 88.39-1.9Q87.24-0.83 85.62-0.21 83.99 0.4 82.27 0.4ZM103.27-25.73L103.27-25.73Q105.54-25.73 107.47-24.96 109.39-24.2 110.79-22.76 112.19-21.33 112.98-19.21 113.77-17.1 113.77-14.4L113.77-14.4Q113.77-13.35 113.54-13 113.32-12.65 112.69-12.65L112.69-12.65 95.84-12.65Q95.89-10.25 96.49-8.47 97.09-6.7 98.14-5.51 99.19-4.33 100.64-3.74 102.09-3.15 103.89-3.15L103.89-3.15Q105.57-3.15 106.78-3.54 107.99-3.93 108.87-4.38 109.74-4.83 110.33-5.21 110.92-5.6 111.34-5.6L111.34-5.6Q111.89-5.6 112.19-5.18L112.19-5.18 113.44-3.55Q112.62-2.55 111.47-1.81 110.32-1.07 109-0.6 107.69-0.13 106.29 0.11 104.89 0.35 103.52 0.35L103.52 0.35Q100.89 0.35 98.68-0.54 96.47-1.43 94.85-3.14 93.24-4.85 92.34-7.38 91.44-9.9 91.44-13.18L91.44-13.18Q91.44-15.83 92.25-18.13 93.07-20.43 94.59-22.11 96.12-23.8 98.32-24.76 100.52-25.73 103.27-25.73ZM103.37-22.45L103.37-22.45Q100.14-22.45 98.29-20.59 96.44-18.73 95.99-15.43L95.99-15.43 109.77-15.43Q109.77-16.98 109.34-18.26 108.92-19.55 108.09-20.49 107.27-21.43 106.08-21.94 104.89-22.45 103.37-22.45Z" fill="#0063db" data-fill-palette-color="primary"></path></g></svg></g></svg></g><g transform="matrix(1,0,0,1,0,163.18950415214928)"><svg viewBox="0 0 232.209792 21.603230369899492" height="21.603230369899492" width="232.209792"><g transform="matrix(1,0,0,1,0,0)"><svg width="232.209792" viewBox="2 -38.43 568.34 52.879999999999995" height="21.603230369899492" data-palette-color="#0063db"><path d="M20.75-36.23L20.75-36.23 23.63-35.99Q24.27-27 24.27-20.8L24.27-20.8Q24.27-16.31 24.02-10.55L24.02-10.55Q23.93-8.11 23.63-6.42 23.34-4.74 22.61-3.13 21.88-1.51 20.63-0.56 19.38 0.39 17.38 0.95 15.38 1.51 12.55 1.51L12.55 1.51Q10.5 1.51 8.94 1.15 7.37 0.78 6.32 0.2 5.27-0.39 4.54-1.34 3.81-2.29 3.39-3.32 2.98-4.35 2.76-5.76 2.54-7.18 2.44-8.45 2.34-9.72 2.25-11.43L2.25-11.43Q2.25-11.57 2.25-11.62L2.25-11.62Q2-17.58 2-21.73L2-21.73Q2-25.24 2.29-35.89L2.29-35.89 4.98-35.3Q5.08-30.81 5.52-22.49 5.96-14.16 6.1-10.64L6.1-10.64Q6.15-8.98 6.25-8.01 6.35-7.03 6.71-5.76 7.08-4.49 7.71-3.81 8.35-3.13 9.52-2.64 10.69-2.15 12.4-2.15 14.11-2.15 15.36-2.37 16.6-2.59 17.41-3.17 18.21-3.76 18.73-4.35 19.24-4.93 19.53-6.08 19.82-7.23 19.95-8.08 20.07-8.94 20.21-10.6L20.21-10.6Q20.56-14.79 20.61-24.17 20.65-33.54 20.75-36.23ZM43.26-23.54L43.26-23.54 42.77-21.58Q38.03-23.54 35.4-23.54L35.4-23.54Q33.05-23.54 32.1-22.83 31.15-22.12 31.15-19.82L31.15-19.82Q31.15-17.97 32.49-16.75 33.84-15.53 35.74-14.82 37.64-14.11 39.57-13.31 41.5-12.5 42.84-10.94 44.19-9.38 44.19-7.08L44.19-7.08Q44.19-3.96 41.89-1.61 39.6 0.73 35.94 0.78L35.94 0.78Q33.25 0.78 30.91-0.34 28.56-1.46 27.19-3.17L27.19-3.17 28.61-4.64Q29.2-4.39 30.34-3.86 31.49-3.32 31.98-3.15 32.47-2.98 33.42-2.78 34.37-2.59 35.45-2.59L35.45-2.59Q37.74-2.59 39.21-3.61 40.67-4.64 40.67-6.49L40.67-6.49Q40.67-7.71 39.99-8.57 39.3-9.42 38.18-9.96 37.06-10.5 35.72-10.99 34.37-11.47 33.03-12.08 31.69-12.7 30.56-13.55 29.44-14.4 28.76-15.87 28.07-17.33 28.07-19.34L28.07-19.34Q28.07-22.27 29.66-24.24 31.25-26.22 34.13-26.22L34.13-26.22Q35.25-26.22 36.67-25.88 38.08-25.54 38.91-25.24 39.74-24.95 41.38-24.29 43.02-23.63 43.26-23.54ZM66.84-4.74L66.84-4.74 67.33-2.59Q65.18-1.81 60.96-0.85 56.73 0.1 54.68 0.1L54.68 0.1Q52.58 0.1 51.02-1.29 49.46-2.69 48.68-4.86 47.9-7.03 47.53-9.16 47.16-11.28 47.16-13.33L47.16-13.33Q47.16-25.54 58.2-25.54L58.2-25.54Q60.83-25.54 62.84-23.85 64.84-22.17 64.84-19.48L64.84-19.48Q64.84-18.02 64.03-16.89 63.23-15.77 62.08-15.11 60.93-14.45 59.15-13.92 57.37-13.38 56-13.13 54.63-12.89 52.73-12.6 50.83-12.3 50.09-12.16L50.09-12.16Q50.14-10.74 50.26-9.67 50.39-8.59 50.75-7.35 51.12-6.1 51.73-5.3 52.34-4.49 53.41-3.96 54.49-3.42 55.95-3.42L55.95-3.42Q57.71-3.42 60.25-3.74 62.79-4.05 64.77-4.39 66.74-4.74 66.84-4.74ZM50.29-15.19L50.29-15.19Q56.93-17.09 61.18-19.19L61.18-19.19Q60.83-20.8 60.25-21.53 59.66-22.27 58.49-22.27L58.49-22.27Q55.51-22.27 53.1-20.21 50.68-18.16 50.29-15.19ZM85.39-18.6L85.39-18.6 83.24-18.75Q82.22-21.48 79.78-21.48L79.78-21.48Q78.7-21.48 77.51-21 76.31-20.51 75.53-20 74.75-19.48 73.48-18.51L73.48-18.51Q73.48-17.82 73.45-14.06 73.43-10.3 73.5-5.71 73.58-1.12 73.67-0.78L73.67-0.78Q73.23 0.68 71.97 0.68L71.97 0.68Q71.09 0.68 70.28-0.02 69.47-0.73 69.28-1.76L69.28-1.76Q70.21-17.43 70.94-25.44L70.94-25.44 73.14-24.95 73.28-21.68Q76.7-24.51 79.14-24.51L79.14-24.51Q81.83-24.51 83.66-23.29 85.49-22.07 85.49-19.73L85.49-19.73Q85.49-18.99 85.39-18.6ZM99.89-13.43L83.19-14.55 82.66-16.75 98.92-17.87Q100.14-17.82 100.99-16.97 101.85-16.11 101.85-15.14L101.85-15.14Q101.85-14.5 101.36-14.01 100.87-13.53 99.89-13.43L99.89-13.43ZM115.91-21.34L115.91-21.34 116.34-19.09Q115.32-18.95 112.93-18.75 110.53-18.55 109.36-18.36L109.36-18.36Q109.36-5.81 109.66-0.15L109.66-0.15Q109.07 1.76 107.7 1.76L107.7 1.76Q107.07 1.76 106.51 1.22 105.94 0.68 105.75-0.15L105.75-0.15Q105.75-1.61 105.92-8.11 106.09-14.6 106.09-18.16L106.09-18.16 102.38-18.31Q102.28-19.29 102.28-21.58L102.28-21.58Q102.77-21.48 104.14-21.34 105.51-21.19 105.99-21.14L105.99-21.14Q106.14-22.71 106.14-25.59L106.14-25.59Q106.14-31.15 107.07-33.2 108-35.25 111.51-35.25L111.51-35.25Q115.27-35.25 117.66-33.84L117.66-33.84 117.37-32.08Q116.74-32.08 115.39-32.2 114.05-32.32 113.37-32.32L113.37-32.32Q111.36-32.32 110.34-31.45 109.31-30.57 109.31-28.08L109.31-28.08Q109.31-27.29 109.34-26.39 109.36-25.49 109.36-25.24L109.36-25.24Q109.36-23.44 109.31-21.29L109.31-21.29Q110.09-21.29 111.49-21.24 112.88-21.19 113.51-21.19L113.51-21.19Q114.73-21.19 115.91-21.34ZM135.73-18.6L135.73-18.6 133.58-18.75Q132.55-21.48 130.11-21.48L130.11-21.48Q129.04-21.48 127.84-21 126.65-20.51 125.86-20 125.08-19.48 123.81-18.51L123.81-18.51Q123.81-17.82 123.79-14.06 123.76-10.3 123.84-5.71 123.91-1.12 124.01-0.78L124.01-0.78Q123.57 0.68 122.3 0.68L122.3 0.68Q121.42 0.68 120.61-0.02 119.81-0.73 119.61-1.76L119.61-1.76Q120.54-17.43 121.27-25.44L121.27-25.44 123.47-24.95 123.62-21.68Q127.04-24.51 129.48-24.51L129.48-24.51Q132.16-24.51 133.99-23.29 135.82-22.07 135.82-19.73L135.82-19.73Q135.82-18.99 135.73-18.6ZM138.85-25.1L138.85-25.1 141.1-24.61Q141.49-20.61 141.78-12.04 142.07-3.47 142.17-1.42L142.17-1.42Q141.73 0.1 140.46 0.1L140.46 0.1Q139.58 0.1 138.78-0.61 137.97-1.32 137.78-2.34L137.78-2.34Q137.87-4.35 138.17-12.77 138.46-21.19 138.85-25.1ZM139.53-33.84L139.53-33.84Q140.85-33.84 141.73-32.69 142.61-31.54 142.61-30.08L142.61-30.08Q142.61-29 142.1-28.34 141.58-27.69 140.71-27.69L140.71-27.69Q139.34-27.69 138.56-28.81 137.78-29.93 137.78-31.45L137.78-31.45Q137.78-32.52 138.24-33.18 138.7-33.84 139.53-33.84ZM166.29-4.74L166.29-4.74 166.78-2.59Q164.63-1.81 160.4-0.85 156.18 0.1 154.13 0.1L154.13 0.1Q152.03 0.1 150.47-1.29 148.91-2.69 148.12-4.86 147.34-7.03 146.98-9.16 146.61-11.28 146.61-13.33L146.61-13.33Q146.61-25.54 157.65-25.54L157.65-25.54Q160.28-25.54 162.28-23.85 164.29-22.17 164.29-19.48L164.29-19.48Q164.29-18.02 163.48-16.89 162.68-15.77 161.53-15.11 160.38-14.45 158.6-13.92 156.82-13.38 155.45-13.13 154.08-12.89 152.18-12.6 150.27-12.3 149.54-12.16L149.54-12.16Q149.59-10.74 149.71-9.67 149.83-8.59 150.2-7.35 150.57-6.1 151.18-5.3 151.79-4.49 152.86-3.96 153.94-3.42 155.4-3.42L155.4-3.42Q157.16-3.42 159.7-3.74 162.24-4.05 164.21-4.39 166.19-4.74 166.29-4.74ZM149.74-15.19L149.74-15.19Q156.38-17.09 160.62-19.19L160.62-19.19Q160.28-20.8 159.7-21.53 159.11-22.27 157.94-22.27L157.94-22.27Q154.96-22.27 152.54-20.21 150.13-18.16 149.74-15.19ZM172.05-19.53L172.05-19.53 172.24-0.2Q171.51 0.2 170.49 0.2L170.49 0.2Q169.7 0.2 168.73-0.05L168.73-0.05Q168.87-3.13 168.92-12.16 168.97-21.19 169.31-25.54L169.31-25.54 171.51-25.05 171.66-22.31Q174.25-25.05 177.61-25.05L177.61-25.05Q179.32-25.05 180.35-24.8 181.37-24.56 182.33-23.61 183.28-22.66 183.77-21.09 184.25-19.53 184.65-16.63 185.04-13.72 185.21-9.84 185.38-5.96 185.43-0.05L185.43-0.05Q185.13 0.05 184.3 0.05L184.3 0.05Q182.55 0.05 181.57-0.39L181.57-0.39Q181.37-1.17 181.37-2.98L181.37-2.98Q181.37-3.91 181.45-6.47 181.52-9.03 181.52-10.45L181.52-10.45Q181.52-12.79 181.35-14.55 181.18-16.31 180.71-18.02 180.25-19.73 179.3-20.65 178.35-21.58 176.93-21.58L176.93-21.58Q175.32-21.58 174.42-21.34 173.51-21.09 173.15-20.75 172.78-20.41 172.05-19.53ZM207.59-37.3L206.96 1.27 204.27 0.73Q204.27-0.24 204.22-0.73L204.22-0.73Q201.64 0.93 198.75 0.93L198.75 0.93Q194.31 0.93 191.85-2.88 189.38-6.69 189.38-11.52L189.38-11.52Q189.38-14.01 189.75-16.21 190.11-18.41 191.02-20.73 191.92-23.05 193.85-24.41 195.78-25.78 198.51-25.78L198.51-25.78Q201.2-25.78 203.54-24.46L203.54-24.46Q203.93-29.64 203.93-34.91L203.93-34.91Q203.93-37.3 203.88-38.43L203.88-38.43Q206.23-37.99 207.59-37.3L207.59-37.3ZM203.83-3.96L203.83-3.96 203.69-19.68Q203.1-20.9 201.85-21.61 200.61-22.31 199.19-22.31L199.19-22.31Q197.29-22.31 195.95-21.09 194.6-19.87 194.04-17.85 193.48-15.82 193.26-14.06 193.04-12.3 193.04-10.35L193.04-10.35Q193.04-2.05 198.61-2.05L198.61-2.05Q200.46-2.05 202-2.56 203.54-3.08 203.83-3.96ZM211.54-2.34L212.62-33.5 214.87-33.01 215.94-1.42Q215.5 0.1 214.23 0.1L214.23 0.1Q213.35 0.1 212.55-0.61 211.74-1.32 211.54-2.34L211.54-2.34ZM223.46 14.45L223.46 14.45 220.43 12.74Q222.43 9.28 227.51-0.44L227.51-0.44Q223.55-3.96 221.45-11.08 219.35-18.21 218.92-25.34L218.92-25.34 221.75-25.2Q221.99-24.02 222.8-19.85 223.6-15.67 224.09-13.67 224.58-11.67 225.82-8.67 227.07-5.66 228.68-3.61L228.68-3.61Q235.47-16.65 235.47-25L235.47-25 235.47-25.54Q238.01-25.15 239.28-24.61L239.28-24.61Q238.5-19.48 236.84-14.16 235.18-8.84 232.68-3.44 230.19 1.95 228.27 5.62 226.34 9.28 223.46 14.45ZM258.56-19.53L258.56-19.53 258.75-0.2Q258.02 0.2 257 0.2L257 0.2Q256.22 0.2 255.24-0.05L255.24-0.05Q255.38-3.13 255.43-12.16 255.48-21.19 255.82-25.54L255.82-25.54 258.02-25.05 258.17-22.31Q260.76-25.05 264.13-25.05L264.13-25.05Q265.83-25.05 266.86-24.8 267.88-24.56 268.84-23.61 269.79-22.66 270.28-21.09 270.77-19.53 271.16-16.63 271.55-13.72 271.72-9.84 271.89-5.96 271.94-0.05L271.94-0.05Q271.64 0.05 270.81 0.05L270.81 0.05Q269.06 0.05 268.08-0.39L268.08-0.39Q267.88-1.17 267.88-2.98L267.88-2.98Q267.88-3.91 267.96-6.47 268.03-9.03 268.03-10.45L268.03-10.45Q268.03-12.79 267.86-14.55 267.69-16.31 267.23-18.02 266.76-19.73 265.81-20.65 264.86-21.58 263.44-21.58L263.44-21.58Q261.83-21.58 260.93-21.34 260.02-21.09 259.66-20.75 259.29-20.41 258.56-19.53ZM275.89-10.4L275.89-10.4Q275.89-12.35 276.31-14.75 276.72-17.14 277.55-19.78 278.38-22.41 280.04-24.17 281.7-25.93 283.9-25.93L283.9-25.93Q288.59-25.93 291.42-21.7 294.25-17.48 294.25-12.3L294.25-12.3Q294.25-10.11 293.79-7.93 293.32-5.76 292.35-3.66 291.37-1.56 289.54-0.17 287.71 1.22 285.27 1.42L285.27 1.42Q280.77 0.83 278.33-2.42 275.89-5.66 275.89-10.4ZM284.19-23.39L284.19-23.39Q282.48-23.19 281.31-20.26 280.14-17.33 279.8-14.58 279.45-11.82 279.45-9.72L279.45-9.72Q279.45-6.98 281.14-4.66 282.82-2.34 284.92-2.34L284.92-2.34Q286.44-2.34 287.66-3.52 288.88-4.69 289.59-6.42 290.29-8.15 290.66-9.91 291.03-11.67 291.03-13.04L291.03-13.04Q291.03-17.04 289.22-20.02 287.41-23 284.19-23.39ZM311.53-23.63L311.53-23.63 312.07-21.44Q310.75-21.34 308.02-20.92 305.28-20.51 303.92-20.41L303.92-20.41Q304.16-18.7 304.21-15.92 304.26-13.13 304.33-11.11 304.4-9.08 304.77-7.06 305.14-5.03 306.28-3.96 307.43-2.88 309.38-2.88L309.38-2.88Q310.85-2.88 313.05-3.56L313.05-3.56Q313.97-1.76 314.41-0.93L314.41-0.93Q310.56 0.44 306.6 0.44L306.6 0.44Q305.14 0.44 304.06-0.44 302.99-1.32 302.4-2.64 301.82-3.96 301.45-5.98 301.08-8.01 300.99-9.81 300.89-11.62 300.89-13.96L300.89-13.96Q300.89-15.23 300.91-17.48 300.94-19.73 300.94-20.56L300.94-20.56Q300.45-20.51 298.64-20.48 296.84-20.46 296.54-20.46L296.54-20.46Q296.2-23.73 296.2-23.83L296.2-23.83Q296.54-23.73 297.32-23.73L297.32-23.73Q297.76-23.73 298.74-23.8 299.72-23.88 300.2-23.88L300.2-23.88Q300.4-23.88 300.72-23.85 301.03-23.83 301.13-23.83L301.13-23.83Q301.33-29.2 301.57-32.57L301.57-32.57 303.77-32.03Q303.82-30.86 303.84-29.52 303.87-28.17 303.89-26.54 303.92-24.9 303.92-24.02L303.92-24.02Q305.18-23.93 307.72-23.83 310.26-23.73 311.53-23.63ZM333.89-4.74L333.89-4.74 334.38-2.59Q332.23-1.81 328.01-0.85 323.79 0.1 321.73 0.1L321.73 0.1Q319.64 0.1 318.07-1.29 316.51-2.69 315.73-4.86 314.95-7.03 314.58-9.16 314.22-11.28 314.22-13.33L314.22-13.33Q314.22-25.54 325.25-25.54L325.25-25.54Q327.89-25.54 329.89-23.85 331.89-22.17 331.89-19.48L331.89-19.48Q331.89-18.02 331.09-16.89 330.28-15.77 329.13-15.11 327.98-14.45 326.2-13.92 324.42-13.38 323.05-13.13 321.69-12.89 319.78-12.6 317.88-12.3 317.15-12.16L317.15-12.16Q317.19-10.74 317.32-9.67 317.44-8.59 317.8-7.35 318.17-6.1 318.78-5.3 319.39-4.49 320.47-3.96 321.54-3.42 323-3.42L323-3.42Q324.76-3.42 327.3-3.74 329.84-4.05 331.82-4.39 333.8-4.74 333.89-4.74ZM317.34-15.19L317.34-15.19Q323.98-17.09 328.23-19.19L328.23-19.19Q327.89-20.8 327.3-21.53 326.72-22.27 325.54-22.27L325.54-22.27Q322.56-22.27 320.15-20.21 317.73-18.16 317.34-15.19ZM363.62-19.34L363.62-19.34Q363.82-16.6 363.92-12.87 364.02-9.13 364.09-5.32 364.16-1.51 364.21-0.15L364.21-0.15Q363.14 0.15 362.21 0.15L362.21 0.15Q361.48 0.15 360.84-0.1L360.84-0.1Q360.69-2 360.65-4.44 360.6-6.88 360.6-8.76 360.6-10.64 360.52-12.7 360.45-14.75 360.26-16.21 360.06-17.68 359.67-18.92 359.28-20.17 358.57-20.85 357.86-21.53 356.84-21.58L356.84-21.58Q355.81-21.58 355.18-21.14 354.54-20.7 353.81-19.53L353.81-19.53 353.81-0.2Q353.08 0.2 352.05 0.2L352.05 0.2Q351.27 0.2 350.29-0.05L350.29-0.05Q350.44-3.13 350.49-12.16 350.54-21.19 350.88-25.54L350.88-25.54 353.08-25.05 353.22-22.56Q354.69-24.85 356.93-24.85L356.93-24.85Q360.26-24.85 362.55-21.92L362.55-21.92Q363.97-24.85 367.14-24.85L367.14-24.85Q368.41-24.85 369.34-24.56L369.34-24.56Q374.66-23.05 374.66-10.94L374.66-10.94Q374.66-9.18 374.54-6.23 374.42-3.27 374.42-2.25L374.42-2.25Q374.42-0.88 374.56 0L374.56 0Q372.02 0.68 371.49 0.68L371.49 0.68Q371 0.68 370.8 0.59L370.8 0.59Q370.61-0.05 370.61-1.76L370.61-1.76Q370.61-2.83 370.75-6.18 370.9-9.52 370.9-11.43L370.9-11.43Q370.9-21.58 366.9-21.68L366.9-21.68Q365.97-21.63 365.28-21.12 364.6-20.61 363.62-19.34ZM380.37-21.09L380.37-21.09 379.39-23.58Q380.66-24.85 382.62-25.61 384.57-26.37 386.47-26.37L386.47-26.37Q394.73-26.37 394.73-12.11L394.73-12.11Q394.73-10.16 394.51-6.35 394.29-2.54 394.29-0.63L394.29-0.63Q393.9 0.88 392.77 0.88L392.77 0.88Q391.89 0.88 391.16 0 390.43-0.88 390.43-1.95L390.43-1.95Q390.43-2.29 390.48-2.44L390.48-2.44Q387.45 0.49 384.03 0.49L384.03 0.49Q381.44 0.49 379.52-1.39 377.59-3.27 377.59-5.96L377.59-5.96Q377.59-10.5 381.13-14.16 384.67-17.82 389.16-17.82L389.16-17.82Q389.35-17.82 389.55-17.8 389.74-17.77 390.01-17.72 390.28-17.68 390.43-17.68L390.43-17.68Q390.04-23.39 385.89-23.39L385.89-23.39Q383.45-23.39 380.37-21.09ZM390.58-5.81L390.58-5.81Q390.67-9.23 390.67-10.99L390.67-10.99Q390.67-12.45 390.58-15.09L390.58-15.09 390.18-15.09Q386.72-15.04 383.86-12.5 381-9.96 381-6.35L381-6.35Q381-4.79 381.96-3.86 382.91-2.93 384.28-2.93L384.28-2.93Q386.42-2.93 390.58-5.81ZM402-19.53L402-19.53 402.19-0.2Q401.46 0.2 400.44 0.2L400.44 0.2Q399.65 0.2 398.68-0.05L398.68-0.05Q398.82-3.13 398.87-12.16 398.92-21.19 399.26-25.54L399.26-25.54 401.46-25.05 401.61-22.31Q404.2-25.05 407.56-25.05L407.56-25.05Q409.27-25.05 410.3-24.8 411.32-24.56 412.28-23.61 413.23-22.66 413.72-21.09 414.21-19.53 414.6-16.63 414.99-13.72 415.16-9.84 415.33-5.96 415.38-0.05L415.38-0.05Q415.08 0.05 414.25 0.05L414.25 0.05Q412.5 0.05 411.52-0.39L411.52-0.39Q411.32-1.17 411.32-2.98L411.32-2.98Q411.32-3.91 411.4-6.47 411.47-9.03 411.47-10.45L411.47-10.45Q411.47-12.79 411.3-14.55 411.13-16.31 410.67-18.02 410.2-19.73 409.25-20.65 408.3-21.58 406.88-21.58L406.88-21.58Q405.27-21.58 404.37-21.34 403.46-21.09 403.1-20.75 402.73-20.41 402-19.53ZM421.09-21.09L421.09-21.09 420.11-23.58Q421.38-24.85 423.33-25.61 425.29-26.37 427.19-26.37L427.19-26.37Q435.44-26.37 435.44-12.11L435.44-12.11Q435.44-10.16 435.22-6.35 435-2.54 435-0.63L435-0.63Q434.61 0.88 433.49 0.88L433.49 0.88Q432.61 0.88 431.88 0 431.15-0.88 431.15-1.95L431.15-1.95Q431.15-2.29 431.2-2.44L431.2-2.44Q428.17 0.49 424.75 0.49L424.75 0.49Q422.16 0.49 420.23-1.39 418.3-3.27 418.3-5.96L418.3-5.96Q418.3-10.5 421.84-14.16 425.38-17.82 429.88-17.82L429.88-17.82Q430.07-17.82 430.27-17.8 430.46-17.77 430.73-17.72 431-17.68 431.15-17.68L431.15-17.68Q430.76-23.39 426.61-23.39L426.61-23.39Q424.16-23.39 421.09-21.09ZM431.29-5.81L431.29-5.81Q431.39-9.23 431.39-10.99L431.39-10.99Q431.39-12.45 431.29-15.09L431.29-15.09 430.9-15.09Q427.44-15.04 424.58-12.5 421.72-9.96 421.72-6.35L421.72-6.35Q421.72-4.79 422.67-3.86 423.63-2.93 424.99-2.93L424.99-2.93Q427.14-2.93 431.29-5.81ZM454.29-25.2L454.29-25.2 456.49-25.68Q456.49-24.22 456.53-23.39L456.53-23.39Q456.83-12.7 456.83-9.47L456.83-9.47Q456.83-8.35 456.88-5.96 456.92-3.56 456.92-2.34L456.92-2.34Q456.92 0.34 456.75 2.29 456.58 4.25 456 6.37 455.41 8.5 454.41 9.84 453.41 11.18 451.58 12.06 449.75 12.94 447.26 12.94L447.26 12.94Q445.11 12.94 439.69 12.3L439.69 12.3Q439.64 11.77 439.52 11.13 439.4 10.5 439.4 10.16L439.4 10.16Q439.4 9.42 439.54 8.98L439.54 8.98Q439.93 9.03 442.59 9.38 445.26 9.72 446.52 9.72L446.52 9.72Q449.89 9.72 451.7 7.67 453.51 5.62 453.56 0L453.56 0Q451.16 1.37 448.53 1.37L448.53 1.37Q446.33 1.37 444.67 0.46 443.01-0.44 442.03-1.83 441.06-3.22 440.45-5.2 439.84-7.18 439.62-9.03 439.4-10.89 439.4-12.99L439.4-12.99Q439.4-18.26 441.71-21.83 444.03-25.39 448.77-25.39L448.77-25.39Q451.55-25.39 454.24-23.68L454.24-23.68Q454.29-24.17 454.29-25.2ZM453.7-4.74L453.7-4.74 453.85-20.51Q453.56-21.39 452.02-21.9 450.48-22.41 448.62-22.41L448.62-22.41Q445.99-22.41 444.52-20 443.06-17.58 443.06-14.11L443.06-14.11Q443.06-12.3 443.25-10.57 443.45-8.84 444.03-6.76 444.62-4.69 445.94-3.42 447.26-2.15 449.21-2.15L449.21-2.15Q450.67-2.15 451.9-2.86 453.12-3.56 453.7-4.74ZM480.6-4.74L480.6-4.74 481.09-2.59Q478.94-1.81 474.72-0.85 470.5 0.1 468.45 0.1L468.45 0.1Q466.35 0.1 464.78-1.29 463.22-2.69 462.44-4.86 461.66-7.03 461.29-9.16 460.93-11.28 460.93-13.33L460.93-13.33Q460.93-25.54 471.96-25.54L471.96-25.54Q474.6-25.54 476.6-23.85 478.6-22.17 478.6-19.48L478.6-19.48Q478.6-18.02 477.8-16.89 476.99-15.77 475.84-15.11 474.7-14.45 472.91-13.92 471.13-13.38 469.76-13.13 468.4-12.89 466.49-12.6 464.59-12.3 463.86-12.16L463.86-12.16Q463.9-10.74 464.03-9.67 464.15-8.59 464.52-7.35 464.88-6.1 465.49-5.3 466.1-4.49 467.18-3.96 468.25-3.42 469.72-3.42L469.72-3.42Q471.47-3.42 474.01-3.74 476.55-4.05 478.53-4.39 480.51-4.74 480.6-4.74ZM464.05-15.19L464.05-15.19Q470.69-17.09 474.94-19.19L474.94-19.19Q474.6-20.8 474.01-21.53 473.43-22.27 472.25-22.27L472.25-22.27Q469.28-22.27 466.86-20.21 464.44-18.16 464.05-15.19ZM496.37-19.34L496.37-19.34Q496.57-16.6 496.67-12.87 496.76-9.13 496.84-5.32 496.91-1.51 496.96-0.15L496.96-0.15Q495.88 0.15 494.96 0.15L494.96 0.15Q494.22 0.15 493.59-0.1L493.59-0.1Q493.44-2 493.39-4.44 493.35-6.88 493.35-8.76 493.35-10.64 493.27-12.7 493.2-14.75 493-16.21 492.81-17.68 492.42-18.92 492.03-20.17 491.32-20.85 490.61-21.53 489.59-21.58L489.59-21.58Q488.56-21.58 487.93-21.14 487.29-20.7 486.56-19.53L486.56-19.53 486.56-0.2Q485.83 0.2 484.8 0.2L484.8 0.2Q484.02 0.2 483.04-0.05L483.04-0.05Q483.19-3.13 483.24-12.16 483.29-21.19 483.63-25.54L483.63-25.54 485.83-25.05 485.97-22.56Q487.44-24.85 489.68-24.85L489.68-24.85Q493-24.85 495.3-21.92L495.3-21.92Q496.71-24.85 499.89-24.85L499.89-24.85Q501.16-24.85 502.09-24.56L502.09-24.56Q507.41-23.05 507.41-10.94L507.41-10.94Q507.41-9.18 507.29-6.23 507.16-3.27 507.16-2.25L507.16-2.25Q507.16-0.88 507.31 0L507.31 0Q504.77 0.68 504.23 0.68L504.23 0.68Q503.75 0.68 503.55 0.59L503.55 0.59Q503.36-0.05 503.36-1.76L503.36-1.76Q503.36-2.83 503.5-6.18 503.65-9.52 503.65-11.43L503.65-11.43Q503.65-21.58 499.64-21.68L499.64-21.68Q498.72-21.63 498.03-21.12 497.35-20.61 496.37-19.34ZM531.04-4.74L531.04-4.74 531.53-2.59Q529.38-1.81 525.15-0.85 520.93 0.1 518.88 0.1L518.88 0.1Q516.78 0.1 515.22-1.29 513.66-2.69 512.87-4.86 512.09-7.03 511.73-9.16 511.36-11.28 511.36-13.33L511.36-13.33Q511.36-25.54 522.4-25.54L522.4-25.54Q525.03-25.54 527.03-23.85 529.04-22.17 529.04-19.48L529.04-19.48Q529.04-18.02 528.23-16.89 527.43-15.77 526.28-15.11 525.13-14.45 523.35-13.92 521.57-13.38 520.2-13.13 518.83-12.89 516.93-12.6 515.02-12.3 514.29-12.16L514.29-12.16Q514.34-10.74 514.46-9.67 514.58-8.59 514.95-7.35 515.32-6.1 515.93-5.3 516.54-4.49 517.61-3.96 518.69-3.42 520.15-3.42L520.15-3.42Q521.91-3.42 524.45-3.74 526.99-4.05 528.96-4.39 530.94-4.74 531.04-4.74ZM514.49-15.19L514.49-15.19Q521.13-17.09 525.37-19.19L525.37-19.19Q525.03-20.8 524.45-21.53 523.86-22.27 522.69-22.27L522.69-22.27Q519.71-22.27 517.29-20.21 514.88-18.16 514.49-15.19ZM536.8-19.53L536.8-19.53 536.99-0.2Q536.26 0.2 535.24 0.2L535.24 0.2Q534.45 0.2 533.48-0.05L533.48-0.05Q533.62-3.13 533.67-12.16 533.72-21.19 534.06-25.54L534.06-25.54 536.26-25.05 536.41-22.31Q539-25.05 542.36-25.05L542.36-25.05Q544.07-25.05 545.1-24.8 546.12-24.56 547.08-23.61 548.03-22.66 548.52-21.09 549-19.53 549.4-16.63 549.79-13.72 549.96-9.84 550.13-5.96 550.18-0.05L550.18-0.05Q549.88 0.05 549.05 0.05L549.05 0.05Q547.3 0.05 546.32-0.39L546.32-0.39Q546.12-1.17 546.12-2.98L546.12-2.98Q546.12-3.91 546.2-6.47 546.27-9.03 546.27-10.45L546.27-10.45Q546.27-12.79 546.1-14.55 545.93-16.31 545.46-18.02 545-19.73 544.05-20.65 543.1-21.58 541.68-21.58L541.68-21.58Q540.07-21.58 539.17-21.34 538.26-21.09 537.9-20.75 537.53-20.41 536.8-19.53ZM567.46-23.63L567.46-23.63 568-21.44Q566.68-21.34 563.94-20.92 561.21-20.51 559.84-20.41L559.84-20.41Q560.09-18.7 560.14-15.92 560.18-13.13 560.26-11.11 560.33-9.08 560.7-7.06 561.06-5.03 562.21-3.96 563.36-2.88 565.31-2.88L565.31-2.88Q566.78-2.88 568.97-3.56L568.97-3.56Q569.9-1.76 570.34-0.93L570.34-0.93Q566.48 0.44 562.53 0.44L562.53 0.44Q561.06 0.44 559.99-0.44 558.91-1.32 558.33-2.64 557.74-3.96 557.38-5.98 557.01-8.01 556.91-9.81 556.81-11.62 556.81-13.96L556.81-13.96Q556.81-15.23 556.84-17.48 556.86-19.73 556.86-20.56L556.86-20.56Q556.38-20.51 554.57-20.48 552.76-20.46 552.47-20.46L552.47-20.46Q552.13-23.73 552.13-23.83L552.13-23.83Q552.47-23.73 553.25-23.73L553.25-23.73Q553.69-23.73 554.67-23.8 555.64-23.88 556.13-23.88L556.13-23.88Q556.33-23.88 556.64-23.85 556.96-23.83 557.06-23.83L557.06-23.83Q557.25-29.2 557.5-32.57L557.5-32.57 559.7-32.03Q559.74-30.86 559.77-29.52 559.79-28.17 559.82-26.54 559.84-24.9 559.84-24.02L559.84-24.02Q561.11-23.93 563.65-23.83 566.19-23.73 567.46-23.63Z" opacity="1" transform="matrix(1,0,0,1,0,0)" fill="#0063db" class="slogan-text-1" data-fill-palette-color="secondary" id="text-1"></path></svg></g></svg></g></svg></g></svg></g><g><svg viewBox="0 0 205.70736479350603 255.3835591094714" height="255.3835591094714" width="205.70736479350603"><g><svg xmlns="http://www.w3.org/2000/svg" xmlns:xlink="http://www.w3.org/1999/xlink" version="1.1" x="0" y="0" viewBox="19.600499696223977 12.259 60.799313105687446 75.4817164078112" enable-background="new 0 0 100 100" xml:space="preserve" height="255.3835591094714" width="205.70736479350603" class="icon-icon-0" data-fill-palette-color="accent" id="icon-0"><g fill="#39cccc" data-fill-palette-color="accent"><path d="M79.324 58.95L42.811 71.576c-0.676 9.822-10.365 15.626-11.567 15.588 2.418 0.992 4.53 2.181 42.378-10.235C84.071 73.502 79.324 58.95 79.324 58.95z" fill="#39cccc" data-fill-palette-color="accent"></path><g fill="#39cccc" data-fill-palette-color="accent"><path d="M77.97 14.884c-1.555-1.766-2.944-2.625-4.252-2.625-0.824 0-1.413 0.354-1.606 0.47-0.444 0.264-1.111 0.917-1.049 2.445l-4.564 3.739c-0.679-0.228-1.331-0.344-1.941-0.344-1.939 0-3.079 1.159-3.433 1.822-1.071 1.902-0.587 4.305 1.356 6.837L51.718 40.312l14.211-9.817c1.126 0.745 2.595 1.448 4.117 1.448 0.904 0 1.731-0.245 2.47-0.738 1.814-1.238 1.462-3.695 1.146-4.909l3.825-4.761c0.163 0.021 0.34 0.035 0.521 0.035 0.87 0 1.385-0.345 1.659-0.633C81.415 19.113 79.707 16.855 77.97 14.884z" fill="#39cccc" data-fill-palette-color="accent"></path><path d="M34.239 82.002c-8.63-1.46-10.697-16.815-6.144-45.646l31.137-6.921 1.749-2.128-0.231-0.349c-0.783-1.174-1.3-2.358-1.537-3.519l-0.114-0.564-36.63 8.142-0.365 2.128c-1.349 7.873-7.386 47.443 6.178 53.268 0.166 0.072 0.331 0.131 0.495 0.189l0.335 0.125 0.133-0.013c1.087-0.106 5.612-3.086 5.561-4.122l-0.117-0.515L34.239 82.002z" fill="#39cccc" data-fill-palette-color="accent"></path><path d="M67.98 32.879l-0.688-0.23-2.256 29.316 6.63-2.291 2.112-27.466-0.899 0.462C71.43 33.415 69.797 33.493 67.98 32.879z" fill="#39cccc" data-fill-palette-color="accent"></path></g></g></svg></g></svg></g></svg></g><defs></defs></svg><rect width="395.52" height="149.5397735531335" fill="none" stroke="none" visibility="hidden"></rect></g></svg></g></svg>